{
  "accessors": [
    {
      "bufferView": 2,
      "componentType": 5126,
      "count": 440,
      "max": [
        -5.879661560058594,
        7.57061243057251,
        0.17255617678165436
      ],
      "min": [
        -7.388847827911377,
        7.18843412399292,
        -2.725728750228882
      ],
      "type": "VEC3"
    },
    {
      "bufferView": 2,
      "byteOffset": 5280,
      "componentType": 5126,
      "count": 440,
      "max": [
        1.0,
        1.0,
        1.0
      ],
      "min": [
        -1.0,
        -1.0,
        -1.0
      ],
      "type": "VEC3"
    },
    {
      "bufferView": 1,
      "componentType": 5126,
      "count": 440,
      "max": [
        20.0787410736084,
        20.111549377441406
      ],
      "min": [
        -0.31969836354255676,
        -20.111549377441406
      ],
      "type": "VEC2"
    },
    {
      "bufferView": 0,
      "componentType": 5125,
      "count": 1230,
      "type": "SCALAR"
    },
    {
      "bufferView": 2,
      "byteOffset": 10560,
      "componentType": 5126,
      "count": 324,
      "max": [
        -5.976831436157227,
        8.012624740600586,
        -6.400435736964027e-14
      ],
      "min": [
        -7.289167404174805,
        7.742196559906006,
        -2.057086706161499
      ],
      "type": "VEC3"
    },
    {
      "bufferView": 2,
      "byteOffset": 14448,
      "componentType": 5126,
      "count": 324,
      "max": [
        1.0,
        1.0,
        1.0
      ],
      "min": [
        -1.0,
        -1.0,
        -1.0
      ],
      "type": "VEC3"
    },
    {
      "bufferView": 1,
      "byteOffset": 3520,
      "componentType": 5126,
      "count": 324,
      "max": [
        0.6561679840087891,
        0.1352139264345169
      ],
      "min": [
        -0.6561679840087891,
        -0.1352139115333557
      ],
      "type": "VEC2"
    },
    {
      "bufferView": 0,
      "byteOffset": 4920,
      "componentType": 5125,
      "count": 720,
      "type": "SCALAR"
    },
    {
      "bufferView": 2,
      "byteOffset": 18336,
      "componentType": 5126,
      "count": 1650,
      "max": [
        -5.916570663452148,
        8.002781867980957,
        0.1312336027622223
      ],
      "min": [
        -7.35478401184082,
        7.221242427825928,
        -2.699481964111328
      ],
      "type": "VEC3"
    },
    {
      "bufferView": 2,
      "byteOffset": 38136,
      "componentType": 5126,
      "count": 1650,
      "max": [
        1.0,
        1.0,
        1.0
      ],
      "min": [
        -1.0,
        -1.0,
        -1.0
      ],
      "type": "VEC3"
    },
    {
      "bufferView": 1,
      "byteOffset": 6112,
      "componentType": 5126,
      "count": 1650,
      "max": [
        20.0787410736084,
        10.757545471191406
      ],
      "min": [
        -12.460769653320313,
        -2.8437397480010986
      ],
      "type": "VEC2"
    },
    {
      "bufferView": 0,
      "byteOffset": 7800,
      "componentType": 5125,
      "count": 4440,
      "type": "SCALAR"
    },
    {
      "bufferView": 2,
      "byteOffset": 57936,
      "componentType": 5126,
      "count": 2042,
      "max": [
        -5.916570663452148,
        7.946414947509766,
        1.7405388355255127
      ],
      "min": [
        -7.35478401184082,
        7.221242427825928,
        -2.699481964111328
      ],
      "type": "VEC3"
    },
    {
      "bufferView": 2,
      "byteOffset": 82440,
      "componentType": 5126,
      "count": 2042,
      "max": [
        1.0,
        1.0,
        1.0
      ],
      "min": [
        -1.0,
        -1.0,
        -1.0
      ],
      "type": "VEC3"
    },
    {
      "bufferView": 1,
      "byteOffset": 19312,
      "componentType": 5126,
      "count": 2042,
      "max": [
        12.861437797546387,
        2.9444634914398193
      ],
      "min": [
        -12.861437797546387,
        -1.633734941482544
      ],
      "type": "VEC2"
    },
    {
      "bufferView": 0,
      "byteOffset": 25560,
      "componentType": 5125,
      "count": 10227,
      "type": "SCALAR"
    }
  ],
  "asset": {
    "extras": {
      "author": "Conception3D (https://sketchfab.com/Conception3D)",
      "license": "CC-BY-4.0 (http://creativecommons.org/licenses/by/4.0/)",
      "source": "https://sketchfab.com/3d-models/pool-ladder-a040fbd9aaef4b3391ce6edbf04f7eb0",
      "title": "Pool ladder"
    },
    "generator": "Sketchfab-15.87.0",
    "version": "2.0"
  },
  "bufferViews": [
    {
      "buffer": 0,
      "byteLength": 66468,
      "name": "floatBufferViews",
      "target": 34963
    },
    {
      "buffer": 0,
      "byteLength": 35648,
      "byteOffset": 66468,
      "byteStride": 8,
      "name": "floatBufferViews",
      "target": 34962
    },
    {
      "buffer": 0,
      "byteLength": 106944,
      "byteOffset": 102116,
      "byteStride": 12,
      "name": "floatBufferViews",
      "target": 34962
    }
  ],
  "buffers": [
    {
      "byteLength": 209060,
      "uri": "scene.bin"
    }
  ],
  "materials": [
    {
      "doubleSided": true,
      "name": "anneau",
      "pbrMetallicRoughness": {
        "baseColorFactor": [
          0.271279,
          0.271279,
          0.271279,
          1.0
        ],
        "metallicFactor": 0.3408036378208232,
        "roughnessFactor": 0.6409661510733322
      }
    },
    {
      "doubleSided": true,
      "name": "gomme",
      "pbrMetallicRoughness": {
        "baseColorFactor": [
          0.0095286,
          0.0095286,
          0.0095286,
          1.0
        ],
        "metallicFactor": 0.28003626746800786,
        "roughnessFactor": 0.5741220436852352
      }
    },
    {
      "doubleSided": true,
      "name": "marche",
      "pbrMetallicRoughness": {
        "baseColorFactor": [
          0.8,
          0.8,
          0.8,
          1.0
        ],
        "metallicFactor": 0.8937867080314429,
        "roughnessFactor": 0.2095178215683432
      }
    },
    {
      "doubleSided": true,
      "name": "acier",
      "pbrMetallicRoughness": {
        "baseColorFactor": [
          0.8,
          0.8,
          0.8,
          1.0
        ],
        "roughnessFactor": 0.11229002900383867
      }
    }
  ],
  "meshes": [
    {
      "name": "Poteaux 4 Poteaux 4 [253250]_anneau_0",
      "primitives": [
        {
          "attributes": {
            "NORMAL": 1,
            "POSITION": 0,
            "TEXCOORD_0": 2
          },
          "indices": 3,
          "material": 0,
          "mode": 4
        }
      ]
    },
    {
      "name": "Poteaux 4 Poteaux 4 [253250]_gomme_0",
      "primitives": [
        {
          "attributes": {
            "NORMAL": 5,
            "POSITION": 4,
            "TEXCOORD_0": 6
          },
          "indices": 7,
          "material": 1,
          "mode": 4
        }
      ]
    },
    {
      "name": "Poteaux 4 Poteaux 4 [253250]_marche_0",
      "primitives": [
        {
          "attributes": {
            "NORMAL": 9,
            "POSITION": 8,
            "TEXCOORD_0": 10
          },
          "indices": 11,
          "material": 2,
          "mode": 4
        }
      ]
    },
    {
      "name": "Poteaux 4 Poteaux 4 [253250]_acier_0",
      "primitives": [
        {
          "attributes": {
            "NORMAL": 13,
            "POSITION": 12,
            "TEXCOORD_0": 14
          },
          "indices": 15,
          "material": 3,
          "mode": 4
        }
      ]
    }
  ],
  "nodes": [
    {
      "children": [
        1
      ],
      "matrix": [
        1.0,
        0.0,
        0.0,
        0.0,
        0.0,
        2.220446049250313e-16,
        -1.0,
        0.0,
        0.0,
        1.0,
        2.220446049250313e-16,
        0.0,
        0.0,
        0.0,
        0.0,
        1.0
      ],
      "name": "Sketchfab_model"
    },
    {
      "children": [
        2
      ],
      "matrix": [
        0.009999999776482582,
        0.0,
        0.0,
        0.0,
        0.0,
        0.0,
        0.009999999776482582,
        0.0,
        0.0,
        -0.009999999776482582,
        0.0,
        0.0,
        0.0,
        0.0,
        0.0,
        1.0
      ],
      "name": "88dc7872e1e544618be6326bdc04ccc5.fbx"
    },
    {
      "children": [
        3
      ],
      "name": "RootNode"
    },
    {
      "children": [
        4,
        5,
        6,
        7
      ],
      "matrix": [
        30.479999542236328,
        0.0,
        0.0,
        0.0,
        0.0,
        -4.965822233283853e-06,
        -30.479999542235927,
        0.0,
        0.0,
        30.479999542235927,
        -4.965822233283853e-06,
        0.0,
        202.4071502685547,
        30.771238327026367,
        239.32998657226563,
        1.0
      ],
      "name": "Poteaux 4 Poteaux 4 [253250]"
    },
    {
      "mesh": 0,
      "name": "Poteaux 4 Poteaux 4 [253250]_anneau_0"
    },
    {
      "mesh": 1,
      "name": "Poteaux 4 Poteaux 4 [253250]_gomme_0"
    },
    {
      "mesh": 2,
      "name": "Poteaux 4 Poteaux 4 [253250]_marche_0"
    },
    {
      "mesh": 3,
      "name": "Poteaux 4 Poteaux 4 [253250]_acier_0"
    }
  ],
  "scene": 0,
  "scenes": [
    {
      "name": "Sketchfab_Scene",
      "nodes": [
        0
      ]
    }
  ]
}
